# Blender 4.3.0
# www.blender.org
mtllib mashtun2.mtl
o Cube.001
v -0.765334 0.632523 0.465547
v -0.764636 0.607066 0.463750
v -0.611317 0.622880 0.636471
v -0.618644 0.601238 0.625082
v -0.721351 0.636519 0.426031
v -0.720653 0.611062 0.424234
v -0.565489 0.627016 0.599125
v -0.572817 0.605375 0.587737
v -0.569594 0.556970 0.680015
v -0.570015 0.582321 0.683000
v -0.524458 0.587497 0.645452
v -0.524038 0.562146 0.642467
v -0.539064 0.553176 0.716534
v -0.539484 0.578527 0.719519
v -0.493928 0.583703 0.681971
v -0.493508 0.558352 0.678986
v -0.013306 0.844823 -0.025722
v 0.000307 0.845009 0.068794
v -0.024455 0.851620 -0.024130
v -0.010843 0.851806 0.070386
v -0.028736 0.864432 -0.023539
v -0.015124 0.864618 0.070977
v -0.024145 0.877264 -0.024225
v -0.010533 0.877450 0.070291
v -0.012830 0.884112 -0.025868
v 0.000782 0.884298 0.068648
v -0.000086 0.881772 -0.027699
v 0.013526 0.881958 0.066817
v 0.008124 0.871338 -0.028861
v 0.021736 0.871525 0.065655
v 0.007959 0.857693 -0.028810
v 0.021571 0.857880 0.065706
v -0.000504 0.847222 -0.027571
v 0.013108 0.847408 0.066945
v -0.020084 0.849085 -0.044878
v -0.030019 0.857449 -0.047341
v -0.032461 0.869074 -0.053692
v -0.026269 0.878519 -0.060959
v -0.014339 0.881366 -0.065742
v -0.002253 0.876282 -0.065803
v 0.004333 0.865647 -0.061113
v 0.002337 0.854435 -0.053867
v -0.007305 0.847895 -0.047455
v -0.026366 0.840194 -0.061763
v -0.036256 0.846133 -0.068046
v -0.038384 0.854128 -0.078411
v -0.031756 0.860438 -0.088006
v -0.019473 0.862111 -0.092344
v -0.007281 0.858363 -0.089393
v -0.000886 0.850949 -0.080536
v -0.003280 0.843338 -0.069915
v -0.013343 0.839090 -0.062501
v -0.031383 0.824574 -0.076254
v -0.040410 0.825156 -0.085693
v -0.041220 0.826247 -0.098691
v -0.033434 0.827337 -0.109168
v -0.020695 0.827914 -0.112221
v -0.008964 0.827710 -0.106421
v -0.003730 0.826819 -0.094482
v -0.007442 0.825659 -0.081991
v -0.018363 0.824772 -0.074792
v -0.031203 0.803575 -0.077854
v -0.040230 0.804158 -0.087293
v -0.041040 0.805249 -0.100291
v -0.033254 0.806338 -0.110768
v -0.020515 0.806916 -0.113821
v -0.008784 0.806711 -0.108021
v -0.003550 0.805821 -0.096082
v -0.007262 0.804660 -0.083591
v -0.018183 0.803774 -0.076392
v -0.030369 0.706239 -0.085271
v -0.039395 0.706821 -0.094710
v -0.040205 0.707912 -0.107708
v -0.032419 0.709002 -0.118185
v -0.019681 0.709579 -0.121238
v -0.007949 0.709375 -0.115438
v -0.002715 0.708484 -0.103499
v -0.006427 0.707324 -0.091008
v -0.017348 0.706437 -0.083810
v -0.006010 0.702939 -0.688569
v 0.452524 0.706253 -0.522346
v 0.696355 0.707620 -0.101043
v 0.611392 0.706398 0.378207
v 0.237390 0.703160 0.691158
v -0.250651 0.699421 0.691377
v -0.624371 0.696931 0.378761
v -0.708903 0.696854 -0.100413
v -0.464693 0.699227 -0.521934
v -0.005783 0.745438 -0.493152
v -0.005979 0.707054 -0.688573
v 0.326758 0.747842 -0.372603
v 0.452554 0.710368 -0.522350
v 0.503591 0.748833 -0.067063
v 0.696385 0.711734 -0.101048
v 0.441973 0.747947 0.280502
v 0.611422 0.710513 0.378202
v 0.170737 0.745599 0.507462
v 0.237421 0.707275 0.691153
v -0.183203 0.742887 0.507621
v -0.250620 0.703536 0.691372
v -0.454235 0.741081 0.280904
v -0.624341 0.701046 0.378756
v -0.515540 0.741025 -0.066606
v -0.708872 0.700969 -0.100418
v -0.338433 0.742746 -0.372305
v -0.464663 0.703341 -0.521939
v 0.000307 0.845009 0.068794
v -0.013306 0.844823 -0.025722
v -0.010843 0.851806 0.070386
v -0.024455 0.851620 -0.024130
v -0.015124 0.864618 0.070977
v -0.028736 0.864432 -0.023539
v -0.010533 0.877450 0.070291
v -0.024145 0.877264 -0.024225
v 0.000782 0.884298 0.068648
v -0.012830 0.884112 -0.025868
v 0.013526 0.881958 0.066817
v -0.000086 0.881772 -0.027699
v 0.021736 0.871525 0.065655
v 0.008124 0.871338 -0.028861
v 0.021571 0.857880 0.065706
v 0.007959 0.857693 -0.028810
v 0.013108 0.847408 0.066945
v -0.000504 0.847222 -0.027571
v -0.000793 0.849349 0.089067
v -0.009634 0.857729 0.094201
v -0.010192 0.869379 0.100938
v -0.002205 0.878849 0.106126
v 0.010588 0.881708 0.107337
v 0.022202 0.876617 0.104004
v 0.027203 0.865960 0.097688
v 0.023250 0.854722 0.091343
v 0.012194 0.848162 0.087938
v -0.002050 0.840527 0.107073
v -0.009768 0.846496 0.115868
v -0.008891 0.854532 0.126381
v 0.000172 0.860875 0.133692
v 0.013180 0.862558 0.134380
v 0.024045 0.858793 0.128124
v 0.027685 0.851341 0.117851
v 0.022396 0.843690 0.108367
v 0.010652 0.839419 0.104110
v -0.002765 0.824966 0.122451
v -0.008763 0.825590 0.134051
v -0.005872 0.826732 0.146745
v 0.004553 0.827857 0.154595
v 0.017635 0.828439 0.153926
v 0.027253 0.828206 0.145053
v 0.028906 0.827266 0.132126
v 0.021821 0.826060 0.121195
v 0.009313 0.825151 0.117374
v -0.002130 0.803973 0.124016
v -0.008127 0.804597 0.135616
v -0.005236 0.805739 0.148311
v 0.005189 0.806865 0.156160
v 0.018271 0.807447 0.155492
v 0.027889 0.807214 0.146618
v 0.029542 0.806274 0.133691
v 0.022457 0.805068 0.122760
v 0.009949 0.804159 0.118939
v 0.000818 0.706666 0.131273
v -0.005179 0.707290 0.142872
v -0.002289 0.708432 0.155567
v 0.008137 0.709557 0.163417
v 0.021219 0.710139 0.162748
v 0.030837 0.709906 0.153874
v 0.032490 0.708966 0.140948
v 0.025404 0.707760 0.130016
v 0.012896 0.706851 0.126195
v 0.194429 0.705684 0.703187
v 0.587421 0.708101 0.414317
v 0.702457 0.707703 -0.058671
v 0.485711 0.704676 -0.494461
v 0.038601 0.700437 -0.689142
v -0.429666 0.696969 -0.551621
v -0.699982 0.695895 -0.146245
v -0.645863 0.697717 0.337306
v -0.292633 0.701583 0.672772
v 0.139480 0.747428 0.515485
v 0.194457 0.709799 0.703167
v 0.424488 0.749181 0.305990
v 0.587449 0.712216 0.414297
v 0.507915 0.748892 -0.037034
v 0.702485 0.711818 -0.058691
v 0.350725 0.746697 -0.353081
v 0.485739 0.708791 -0.494481
v 0.026469 0.743623 -0.494269
v 0.038629 0.704552 -0.689162
v -0.313131 0.741107 -0.394534
v -0.429637 0.701084 -0.551641
v -0.509171 0.740328 -0.100545
v -0.699954 0.700010 -0.146265
v -0.469923 0.741650 0.250139
v -0.645835 0.701832 0.337286
v -0.213751 0.744454 0.493428
v -0.292605 0.705698 0.672753
v -0.421060 0.543621 0.549633
v -0.385054 0.525864 0.578682
v -0.365456 0.480903 0.593602
v -0.371436 0.429774 0.587412
v -0.400196 0.396402 0.563008
v -0.438279 0.396402 0.531809
v -0.467865 0.429774 0.508413
v -0.475111 0.480903 0.503768
v -0.456626 0.525864 0.520047
v -0.535803 0.519712 0.689694
v -0.509458 0.506720 0.710948
v -0.495118 0.473822 0.721865
v -0.499494 0.436412 0.717336
v -0.520537 0.411995 0.699480
v -0.548402 0.411995 0.676652
v -0.570050 0.436412 0.659534
v -0.575351 0.473822 0.656135
v -0.561826 0.506720 0.668046
v -0.424836 0.524638 0.627242
v -0.405238 0.479677 0.642162
v -0.411218 0.428548 0.635972
v -0.439978 0.395176 0.611568
v -0.478061 0.395176 0.580369
v -0.507647 0.428548 0.556973
v -0.514893 0.479677 0.552328
v -0.496408 0.524638 0.568607
v -0.460842 0.542395 0.598193
v -0.473940 0.523125 0.687180
v -0.446594 0.523968 0.653800
v -0.454342 0.478163 0.702100
v -0.426996 0.479006 0.668720
v -0.460322 0.427035 0.695910
v -0.432976 0.427877 0.662530
v -0.489082 0.393663 0.671506
v -0.461736 0.394506 0.638126
v -0.527165 0.393663 0.640307
v -0.499819 0.394506 0.606927
v -0.556751 0.427035 0.616912
v -0.529405 0.427877 0.583532
v -0.563997 0.478163 0.612267
v -0.536651 0.479006 0.578887
v -0.545512 0.523125 0.628545
v -0.518166 0.523968 0.595166
v -0.482600 0.541725 0.624751
v -0.509946 0.540882 0.658131
v -0.535759 0.519684 0.690237
v -0.511767 0.506691 0.714117
v -0.498641 0.473794 0.726466
v -0.502522 0.436384 0.721506
v -0.521594 0.411966 0.701558
v -0.546933 0.411966 0.675956
v -0.566683 0.436384 0.656679
v -0.571602 0.473794 0.652747
v -0.559389 0.506692 0.666000
v -0.583614 0.515081 0.751450
v -0.557553 0.502089 0.773052
v -0.543360 0.469191 0.784159
v -0.547675 0.431781 0.779572
v -0.568479 0.407363 0.761438
v -0.596038 0.407363 0.738243
v -0.617457 0.431781 0.720839
v -0.622713 0.469191 0.717370
v -0.609347 0.502089 0.729459
v 0.123681 0.495437 0.791396
v 0.222400 0.500434 0.776245
v 0.125677 0.486316 0.801396
v 0.224397 0.491314 0.786245
v 0.127774 0.485870 0.814908
v 0.226493 0.490867 0.799756
v 0.128989 0.494306 0.825609
v 0.227708 0.499303 0.810458
v 0.128755 0.507677 0.828493
v 0.227474 0.512674 0.813342
v 0.127181 0.519727 0.822210
v 0.225900 0.524725 0.807058
v 0.125003 0.524818 0.809700
v 0.223722 0.529815 0.794548
v 0.123241 0.520567 0.796816
v 0.221960 0.525564 0.781665
v 0.122719 0.508963 0.789587
v 0.221438 0.513961 0.774436
v 0.104043 0.491741 0.799890
v 0.102102 0.484654 0.811430
v 0.096933 0.486292 0.823991
v 0.090955 0.495888 0.831695
v 0.086966 0.508952 0.830937
v 0.086831 0.519372 0.822073
v 0.090614 0.522271 0.809249
v 0.096545 0.516294 0.798467
v 0.101848 0.504237 0.794771
v 0.085042 0.484395 0.795493
v 0.078821 0.476971 0.805154
v 0.069025 0.478193 0.814626
v 0.060239 0.487490 0.819477
v 0.056574 0.500512 0.817437
v 0.059744 0.511165 0.809461
v 0.068266 0.514466 0.799281
v 0.078153 0.508868 0.791660
v 0.084778 0.496993 0.790164
v 0.067697 0.476070 0.784020
v 0.057537 0.468178 0.788674
v 0.044161 0.468874 0.791460
v 0.033827 0.477832 0.791074
v 0.031372 0.490860 0.787698
v 0.037943 0.501862 0.782910
v 0.050467 0.505691 0.778951
v 0.063082 0.500555 0.777673
v 0.069887 0.488856 0.779675
v 0.063266 0.470108 0.764238
v 0.053106 0.462216 0.768892
v 0.039730 0.462912 0.771679
v 0.029397 0.471870 0.771293
v 0.026942 0.484898 0.767916
v 0.033513 0.495900 0.763128
v 0.046036 0.499729 0.759169
v 0.058651 0.494593 0.757892
v 0.065456 0.482894 0.759894
v 0.042729 0.442471 0.672543
v 0.032569 0.434579 0.677198
v 0.019193 0.435275 0.679984
v 0.008859 0.444233 0.679598
v 0.006404 0.457261 0.676221
v 0.012975 0.468263 0.671433
v 0.025499 0.472092 0.667475
v 0.038114 0.466956 0.666197
v 0.044919 0.455257 0.668199
v 0.222400 0.500434 0.776245
v 0.123681 0.495437 0.791396
v 0.224397 0.491314 0.786245
v 0.125677 0.486316 0.801396
v 0.226493 0.490867 0.799756
v 0.127774 0.485870 0.814908
v 0.227708 0.499303 0.810458
v 0.128989 0.494306 0.825609
v 0.227474 0.512674 0.813342
v 0.128755 0.507677 0.828493
v 0.225900 0.524725 0.807058
v 0.127181 0.519727 0.822210
v 0.223722 0.529815 0.794548
v 0.125003 0.524818 0.809700
v 0.221960 0.525564 0.781665
v 0.123241 0.520567 0.796816
v 0.221438 0.513961 0.774436
v 0.122719 0.508963 0.789587
v 0.243944 0.498823 0.778418
v 0.249938 0.492138 0.788740
v 0.258440 0.494468 0.799203
v 0.265471 0.504722 0.804910
v 0.267742 0.518103 0.803192
v 0.264190 0.528350 0.794852
v 0.256477 0.530667 0.783792
v 0.248212 0.523971 0.775189
v 0.243263 0.511395 0.773066
v 0.261387 0.493322 0.768428
v 0.270914 0.486695 0.775671
v 0.282924 0.489021 0.781797
v 0.291797 0.499212 0.783938
v 0.293381 0.512500 0.781092
v 0.286935 0.522666 0.774592
v 0.275475 0.524955 0.767478
v 0.264364 0.518295 0.763080
v 0.258800 0.505802 0.763455
v 0.275239 0.486576 0.752166
v 0.287052 0.479797 0.753448
v 0.300512 0.481851 0.752115
v 0.309320 0.491778 0.748792
v 0.309355 0.504932 0.745033
v 0.300600 0.515159 0.742597
v 0.287153 0.517673 0.742624
v 0.275304 0.511298 0.745101
v 0.270599 0.499017 0.748870
v 0.274114 0.480781 0.731877
v 0.285928 0.474002 0.733159
v 0.299388 0.476056 0.731826
v 0.308196 0.485983 0.728503
v 0.308231 0.499137 0.724744
v 0.299476 0.509364 0.722308
v 0.286028 0.511878 0.722335
v 0.274180 0.505503 0.724812
v 0.269475 0.493222 0.728581
v 0.268903 0.453920 0.637830
v 0.280717 0.447141 0.639112
v 0.294176 0.449195 0.637779
v 0.302984 0.459122 0.634456
v 0.303019 0.472276 0.630697
v 0.294265 0.482503 0.628261
v 0.280817 0.485017 0.628288
v 0.268968 0.478642 0.630766
v 0.264263 0.466361 0.634534
v -0.019353 0.458547 -0.745406
v -0.117694 0.463544 -0.727971
v -0.021581 0.449426 -0.755357
v -0.119922 0.454423 -0.737921
v -0.023989 0.448979 -0.768817
v -0.122331 0.453977 -0.751381
v -0.025453 0.457415 -0.779487
v -0.123794 0.462413 -0.762052
v -0.025285 0.470787 -0.782376
v -0.123627 0.475784 -0.764940
v -0.023566 0.482837 -0.776131
v -0.121907 0.487834 -0.758695
v -0.021099 0.487927 -0.763674
v -0.119440 0.492925 -0.746238
v -0.019038 0.483676 -0.750834
v -0.117380 0.488674 -0.733399
v -0.018349 0.472073 -0.743620
v -0.116690 0.477070 -0.726184
v 0.000083 0.454851 -0.754353
v 0.001756 0.447764 -0.765935
v 0.006632 0.449401 -0.778612
v 0.012430 0.458997 -0.786452
v 0.016436 0.472062 -0.785788
v 0.016776 0.482481 -0.776929
v 0.013292 0.485381 -0.764021
v 0.007612 0.479403 -0.753104
v 0.002396 0.467346 -0.749286
v 0.019181 0.447505 -0.750397
v 0.025177 0.440080 -0.760200
v 0.034750 0.441303 -0.769897
v 0.043421 0.450600 -0.774950
v 0.047133 0.463622 -0.772996
v 0.044149 0.474275 -0.764948
v 0.035864 0.477575 -0.754573
v 0.026157 0.471978 -0.746725
v 0.019568 0.460102 -0.745076
v 0.036787 0.439179 -0.739329
v 0.046837 0.431288 -0.744218
v 0.060145 0.431984 -0.747313
v 0.070484 0.440941 -0.747167
v 0.073017 0.453969 -0.743849
v 0.066558 0.464972 -0.738909
v 0.054130 0.468801 -0.734661
v 0.041548 0.463664 -0.733092
v 0.034698 0.451966 -0.734935
v 0.041675 0.433217 -0.719656
v 0.051725 0.425326 -0.724544
v 0.065033 0.426021 -0.727640
v 0.075372 0.434979 -0.727494
v 0.077905 0.448007 -0.724175
v 0.071446 0.459010 -0.719236
v 0.059018 0.462839 -0.714988
v 0.046436 0.457702 -0.713418
v 0.039587 0.446004 -0.715262
v 0.064332 0.405580 -0.628461
v 0.074382 0.397689 -0.633350
v 0.087690 0.398385 -0.636446
v 0.098029 0.407342 -0.636300
v 0.100562 0.420371 -0.632981
v 0.094104 0.431373 -0.628042
v 0.081675 0.435202 -0.623794
v 0.069093 0.430065 -0.622224
v 0.062244 0.418367 -0.624068
v -0.117694 0.463544 -0.727971
v -0.019353 0.458547 -0.745406
v -0.119922 0.454423 -0.737921
v -0.021581 0.449426 -0.755357
v -0.122331 0.453977 -0.751381
v -0.023989 0.448979 -0.768817
v -0.123794 0.462413 -0.762052
v -0.025453 0.457415 -0.779487
v -0.123627 0.475784 -0.764940
v -0.025285 0.470787 -0.782376
v -0.121907 0.487834 -0.758695
v -0.023566 0.482837 -0.776131
v -0.119440 0.492925 -0.746238
v -0.021099 0.487927 -0.763674
v -0.117380 0.488674 -0.733399
v -0.019038 0.483676 -0.750834
v -0.116690 0.477070 -0.726184
v -0.018349 0.472073 -0.743620
v -0.139283 0.461933 -0.729644
v -0.145514 0.455247 -0.739825
v -0.154256 0.457577 -0.750087
v -0.161418 0.467832 -0.755630
v -0.163648 0.481213 -0.753860
v -0.159904 0.491459 -0.745604
v -0.151937 0.493777 -0.734726
v -0.143475 0.487081 -0.726317
v -0.138478 0.474505 -0.724309
v -0.156490 0.456432 -0.719252
v -0.166182 0.449804 -0.726273
v -0.178331 0.452130 -0.732118
v -0.187250 0.462322 -0.734053
v -0.188768 0.475609 -0.731171
v -0.182173 0.485776 -0.724822
v -0.170552 0.488064 -0.717976
v -0.159342 0.481404 -0.713837
v -0.153788 0.468911 -0.714340
v -0.169960 0.449685 -0.702674
v -0.181801 0.442906 -0.703681
v -0.195226 0.444960 -0.702037
v -0.203955 0.454887 -0.698510
v -0.203902 0.468041 -0.694751
v -0.195094 0.478268 -0.692519
v -0.181650 0.480782 -0.692858
v -0.169862 0.474407 -0.695610
v -0.165245 0.462126 -0.699486
v -0.168366 0.443891 -0.682416
v -0.180206 0.437111 -0.683424
v -0.193632 0.439166 -0.681779
v -0.202360 0.449092 -0.678253
v -0.202308 0.462247 -0.674494
v -0.193499 0.472473 -0.672262
v -0.180056 0.474988 -0.672601
v -0.168268 0.468612 -0.675352
v -0.163651 0.456331 -0.679228
v -0.160976 0.417030 -0.588515
v -0.172816 0.410250 -0.589523
v -0.186242 0.412305 -0.587878
v -0.194970 0.422231 -0.584352
v -0.194918 0.435386 -0.580593
v -0.186109 0.445612 -0.578361
v -0.172666 0.448126 -0.578700
v -0.160878 0.441751 -0.581451
v -0.156261 0.429470 -0.585328
v -0.765842 -0.211256 0.000496
v -0.765842 -0.185727 0.000496
v -0.742097 -0.211256 0.159637
v -0.742097 -0.185727 0.159637
v -0.808514 -0.211256 0.006864
v -0.808514 -0.185727 0.006864
v -0.784769 -0.211256 0.166004
v -0.784769 -0.185727 0.166004
v -0.000001 -0.700000 -0.679711
v -0.000001 0.700000 -0.549291
v 0.449951 -0.700000 -0.515942
v 0.366119 0.700000 -0.416034
v 0.689365 -0.700000 -0.101264
v 0.560927 0.700000 -0.078617
v 0.606218 -0.700000 0.370291
v 0.493271 0.700000 0.305081
v 0.239414 -0.700000 0.678076
v 0.194808 0.700000 0.555521
v -0.239414 -0.700000 0.678076
v -0.194808 0.700000 0.555521
v -0.606219 -0.700000 0.370290
v -0.493272 0.700000 0.305080
v -0.689366 -0.700000 -0.101264
v -0.560928 0.700000 -0.078617
v -0.449952 -0.700000 -0.515942
v -0.366120 0.700000 -0.416035
v 0.449951 0.700000 -0.515942
v -0.000000 0.700000 -0.679711
v 0.689365 0.700000 -0.101264
v 0.606218 0.700000 0.370291
v 0.239414 0.700000 0.678075
v -0.239415 0.700000 0.678075
v -0.606219 0.700000 0.370290
v -0.689366 0.700000 -0.101264
v -0.449952 0.700000 -0.515942
v 0.435673 0.700000 -0.498926
v -0.000001 0.700000 -0.657498
v 0.667490 0.700000 -0.097407
v 0.586981 0.700000 0.359184
v 0.231817 0.700000 0.657202
v -0.231817 0.700000 0.657202
v -0.586982 0.700000 0.359184
v -0.667491 0.700000 -0.097407
v -0.435674 0.700000 -0.498926
v 0.366119 -0.492637 -0.416034
v -0.000001 -0.492637 -0.549291
v 0.560927 -0.492637 -0.078617
v 0.493271 -0.492637 0.305081
v 0.194808 -0.492637 0.555521
v -0.194808 -0.492637 0.555521
v -0.493272 -0.492637 0.305080
v -0.560928 -0.492637 -0.078617
v -0.366120 -0.492637 -0.416034
v -0.640889 -0.272110 0.075322
v -0.738300 -0.264241 0.096517
v -0.637901 -0.252001 0.081588
v -0.735313 -0.244133 0.102782
v -0.633190 -0.240927 0.099129
v -0.730601 -0.233059 0.120324
v -0.628960 -0.244069 0.119739
v -0.726371 -0.236201 0.140933
v -0.627190 -0.259957 0.133774
v -0.724600 -0.252089 0.154968
v -0.628708 -0.281157 0.134666
v -0.726119 -0.273289 0.155860
v -0.632804 -0.297749 0.121998
v -0.730215 -0.289881 0.143193
v -0.637562 -0.301969 0.101698
v -0.734973 -0.294101 0.122893
v -0.640755 -0.291844 0.083265
v -0.738166 -0.283976 0.104459
v -0.813740 -0.240087 0.119906
v -0.807526 -0.258650 0.111579
v -0.813925 -0.229836 0.138545
v -0.807994 -0.232692 0.158774
v -0.798723 -0.247320 0.171128
v -0.790448 -0.266875 0.169825
v -0.787043 -0.282206 0.155476
v -0.790101 -0.286141 0.134795
v -0.798190 -0.276838 0.117459
v -0.863560 -0.270220 0.129034
v -0.845710 -0.278357 0.120805
v -0.871906 -0.264994 0.147890
v -0.866843 -0.265124 0.168552
v -0.850740 -0.270550 0.181350
v -0.831132 -0.278732 0.180297
v -0.817193 -0.285842 0.165885
v -0.815446 -0.288554 0.144858
v -0.826708 -0.285598 0.127055
v -0.877000 -0.302827 0.132122
v -0.859150 -0.310964 0.123893
v -0.885346 -0.297601 0.150978
v -0.880284 -0.297731 0.171639
v -0.864181 -0.303157 0.184438
v -0.844573 -0.311339 0.183385
v -0.830634 -0.318449 0.168973
v -0.828887 -0.321161 0.147946
v -0.840149 -0.318204 0.130143
v -0.891526 -0.341666 0.135476
v -0.872096 -0.340736 0.126864
v -0.900867 -0.342405 0.154574
v -0.895749 -0.342607 0.175222
v -0.878568 -0.342177 0.187757
v -0.857361 -0.341317 0.186315
v -0.842052 -0.340429 0.171571
v -0.839805 -0.339928 0.150423
v -0.851670 -0.340050 0.132767
v -0.583221 -0.276767 0.062775
v -0.580233 -0.256659 0.069040
v -0.575522 -0.245585 0.086582
v -0.571292 -0.248727 0.107192
v -0.569521 -0.264615 0.121226
v -0.571040 -0.285815 0.122119
v -0.575136 -0.302407 0.109451
v -0.579894 -0.306628 0.089151
v -0.583087 -0.296502 0.070717
v -0.899947 -0.365848 0.154117
v -0.894830 -0.366049 0.174765
v -0.841133 -0.363871 0.171114
v -0.838885 -0.363370 0.149966
v -0.877648 -0.365619 0.187300
v -0.871176 -0.364178 0.126407
v -0.890605 -0.365109 0.135019
v -0.850750 -0.363492 0.132310
v -0.856441 -0.364759 0.185858
v -0.768381 -0.253390 0.120197
v -0.768381 -0.191652 0.112025
v -0.760905 -0.253390 0.123065
v -0.755922 -0.191652 0.116805
v -0.756928 -0.253390 0.130327
v -0.749293 -0.191652 0.128908
v -0.758309 -0.253390 0.138585
v -0.751595 -0.191652 0.142671
v -0.764403 -0.253390 0.143975
v -0.761752 -0.191652 0.151654
v -0.772359 -0.253390 0.143975
v -0.775010 -0.191652 0.151654
v -0.778452 -0.253390 0.138585
v -0.785167 -0.191652 0.142671
v -0.779834 -0.253390 0.130327
v -0.787469 -0.191652 0.128908
v -0.775856 -0.253390 0.123065
v -0.780840 -0.191652 0.116805
v -0.529959 0.506315 0.664859
v -0.529959 0.568053 0.656686
v -0.522484 0.506315 0.667727
v -0.517500 0.568053 0.661466
v -0.518506 0.506315 0.674988
v -0.510871 0.568053 0.673569
v -0.519888 0.506315 0.683246
v -0.513173 0.568053 0.687332
v -0.525981 0.506315 0.688636
v -0.523330 0.568053 0.696316
v -0.533937 0.506315 0.688636
v -0.536588 0.568053 0.696316
v -0.540031 0.506315 0.683246
v -0.546745 0.568053 0.687332
v -0.541412 0.506315 0.674988
v -0.549047 0.568053 0.673569
v -0.537434 0.506315 0.667727
v -0.542418 0.568053 0.661466
vn -0.7416 -0.0820 0.6658
vn 0.2932 0.8371 0.4619
vn 0.7418 0.0819 -0.6656
vn -0.6696 0.0340 -0.7419
vn -0.0242 0.9967 0.0772
vn 0.0338 -0.9972 -0.0660
vn 0.7687 0.0873 -0.6336
vn -0.2729 -0.8558 -0.4394
vn -0.7759 -0.0775 0.6261
vn 0.7759 0.0775 -0.6261
vn 0.6394 -0.0795 0.7648
vn -0.0165 0.9930 0.1169
vn 0.0165 -0.9930 -0.1169
vn -0.7687 -0.0873 0.6336
vn -0.5112 -0.8562 0.0753
vn -0.9378 -0.3196 0.1357
vn -0.9309 0.3402 0.1334
vn -0.5088 0.8579 0.0716
vn 0.1767 0.9839 -0.0274
vn 0.7747 0.6222 -0.1128
vn 0.9897 -0.0125 -0.1425
vn 0.1425 0.0020 0.9898
vn 0.7667 -0.6326 -0.1092
vn 0.1807 -0.9832 -0.0241
vn 0.0237 -0.9908 -0.1335
vn 0.8550 0.2944 -0.4270
vn 0.6473 -0.7500 -0.1358
vn 0.9818 -0.1269 -0.1415
vn 0.8204 0.5499 -0.1569
vn 0.2766 0.9542 -0.1138
vn -0.3849 0.9230 0.0003
vn -0.5830 -0.8121 -0.0236
vn -0.8767 0.4664 0.1178
vn -0.9640 -0.2366 0.1214
vn 0.3715 0.4466 -0.8140
vn -0.8390 0.5233 -0.1489
vn 0.9525 -0.2948 -0.0766
vn -0.3354 0.8031 -0.4925
vn -0.6389 -0.5685 0.5184
vn 0.5980 -0.7579 0.2609
vn 0.3350 0.7234 -0.6036
vn -0.9655 -0.0032 0.2603
vn -0.0147 -0.8722 0.4890
vn -0.2355 0.0718 -0.9692
vn -0.9898 0.0345 0.1379
vn -0.0438 -0.6579 0.7518
vn 0.8875 0.1691 -0.4287
vn -0.8146 0.3661 -0.4500
vn 0.9541 -0.2562 0.1548
vn -0.2857 0.5079 -0.8127
vn -0.6641 -0.3924 0.6364
vn 0.5508 -0.5999 0.5802
vn -0.1101 -0.0765 0.9910
vn -0.7232 -0.0586 0.6881
vn 0.5527 -0.0586 0.8313
vn 0.4431 0.0719 -0.8936
vn -0.9980 -0.0132 0.0611
vn 0.9162 0.0382 -0.3988
vn -0.8039 0.0383 -0.5935
vn 0.9588 -0.0134 0.2837
vn 0.0248 -0.9961 -0.0852
vn -0.3415 0.0014 -0.9399
vn 0.9846 -0.0071 0.1745
vn 0.6418 -0.0039 0.7669
vn 0.0004 0.0012 1.0000
vn -0.6416 0.0056 0.7670
vn -0.9848 0.0075 0.1737
vn -0.8653 0.0058 -0.5013
vn 0.3408 -0.0036 -0.9401
vn 0.8655 -0.0070 -0.5009
vn 0.0077 -1.0000 -0.0012
vn 0.0627 0.9793 -0.1924
vn 0.1706 0.9801 -0.1019
vn 0.1951 0.9801 0.0371
vn 0.1246 0.9794 0.1591
vn -0.0074 0.9784 0.2068
vn -0.1390 0.9776 0.1584
vn -0.2089 0.9772 0.0367
vn -0.1848 0.9775 -0.1015
vn -0.0777 0.9783 -0.1921
vn -0.0077 1.0000 0.0012
vn 0.1768 0.9839 -0.0274
vn -0.1425 -0.0020 -0.9898
vn 0.1808 -0.9832 -0.0241
vn 0.0610 -0.9903 0.1252
vn 0.9406 0.2956 0.1672
vn 0.6598 -0.7499 -0.0495
vn 0.9819 -0.1269 -0.1408
vn 0.8310 0.5500 -0.0831
vn 0.2970 0.9545 0.0274
vn -0.3698 0.9232 0.1047
vn -0.5522 -0.8117 0.1903
vn -0.8746 0.4664 0.1326
vn -0.9589 -0.2365 0.1565
vn 0.5858 0.4495 0.6743
vn -0.7632 0.5244 0.3776
vn 0.9355 -0.2951 -0.1941
vn -0.1832 0.8052 0.5640
vn -0.7588 -0.5701 -0.3148
vn 0.5005 -0.7592 -0.4161
vn 0.4913 0.7256 0.4818
vn -0.9997 -0.0037 0.0227
vn -0.1516 -0.8740 -0.4616
vn 0.0475 0.0757 0.9960
vn -0.9886 0.0345 0.1469
vn -0.2538 -0.6608 -0.7064
vn 0.9723 0.1703 0.1602
vn -0.6547 0.3683 0.6601
vn 0.8718 -0.2573 -0.4168
vn -0.0450 0.5112 0.8583
vn -0.8165 -0.3945 -0.4216
vn 0.3651 -0.6025 -0.7098
vn -0.3852 -0.0802 -0.9193
vn -0.8880 -0.0609 -0.4558
vn 0.2957 -0.0621 -0.9533
vn 0.6772 0.0751 0.7320
vn -0.9747 -0.0129 0.2231
vn 0.9915 0.0393 0.1239
vn -0.6038 0.0411 0.7961
vn 0.8398 -0.0150 -0.5427
vn 0.0483 -0.9957 0.0786
vn -0.0624 0.0052 0.9980
vn 0.8954 -0.0082 -0.4453
vn 0.3993 -0.0071 -0.9168
vn -0.2818 -0.0027 -0.9595
vn -0.8320 0.0030 -0.5548
vn -0.9938 0.0073 0.1112
vn -0.6887 0.0082 0.7250
vn 0.5923 -0.0001 0.8057
vn 0.9717 -0.0055 0.2363
vn 0.0082 -1.0000 0.0028
vn 0.1139 0.9800 0.1631
vn 0.1919 0.9803 0.0458
vn 0.1762 0.9798 -0.0944
vn 0.0741 0.9787 -0.1916
vn -0.0660 0.9776 -0.2001
vn -0.1786 0.9770 -0.1165
vn -0.2113 0.9772 0.0200
vn -0.1492 0.9780 0.1458
vn -0.0209 0.9791 0.2024
vn -0.0082 1.0000 -0.0028
vn 0.6336 0.0195 -0.7734
vn -0.2888 0.9334 -0.2130
vn -0.6845 0.4801 -0.5486
vn -0.7609 -0.1649 -0.6275
vn -0.5034 -0.7487 -0.4313
vn 0.0124 -0.9998 -0.0151
vn 0.5219 -0.7487 0.4087
vn 0.7650 -0.1649 0.6226
vn -0.0242 0.8393 0.5431
vn 0.2657 0.9334 0.2412
vn 0.5220 -0.7487 0.4087
vn 0.6726 0.4801 0.5632
vn 0.3562 0.4305 0.8294
vn 0.4443 -0.1587 0.8817
vn 0.2133 -0.6898 0.6919
vn -0.2557 -0.9150 0.3121
vn -0.7203 -0.6898 -0.0730
vn -0.9519 -0.1587 -0.2621
vn -0.8832 0.4305 -0.1860
vn -0.5277 0.8393 0.1306
vn 0.6726 0.4801 0.5631
vn 0.7001 0.4794 0.5292
vn 0.0515 -0.9971 -0.0566
vn 0.5769 -0.4788 0.6618
vn 0.3026 0.9321 0.1991
vn 0.5635 -0.7428 0.3616
vn 0.6516 0.1616 0.7412
vn 0.7911 -0.1621 0.5898
vn 0.4029 0.7414 0.5366
vn 0.1791 -0.9265 0.3309
vn -0.7676 -0.1656 -0.6191
vn 0.7856 -0.1622 0.5970
vn -0.4927 -0.7486 -0.4437
vn -0.3193 0.9300 -0.1818
vn 0.6743 0.4800 0.5612
vn 0.0402 -0.9982 -0.0436
vn -0.7066 0.4763 -0.5233
vn 0.2455 0.9331 0.2629
vn 0.5538 -0.7439 0.3741
vn -0.0645 -0.7437 -0.6654
vn 0.0444 -0.9982 -0.0399
vn 0.1325 -0.7857 0.6043
vn 0.1586 -0.2055 0.9657
vn 0.1105 0.4708 0.8753
vn 0.0107 0.9268 0.3753
vn -0.0941 0.9492 -0.3003
vn 0.9872 0.0500 -0.1515
vn -0.1549 0.5274 -0.8354
vn -0.1432 -0.1412 -0.9796
vn -0.2550 -0.2776 -0.9262
vn -0.3372 0.9386 0.0726
vn -0.2012 0.3768 -0.9042
vn -0.1091 0.9053 -0.4105
vn -0.0394 0.9537 0.2983
vn 0.0295 0.5603 0.8278
vn 0.1038 -0.0633 0.9926
vn -0.1566 -0.7894 -0.5936
vn 0.1365 -0.6897 0.7111
vn 0.0404 -0.9979 0.0504
vn -0.7174 0.5639 0.4091
vn -0.1163 -0.6111 0.7829
vn -0.0693 0.8166 -0.5731
vn -0.3846 -0.0139 0.9230
vn 0.3956 -0.8217 -0.4101
vn 0.1807 0.2937 -0.9387
vn -0.4692 0.5916 0.6557
vn 0.2094 -0.9414 0.2644
vn 0.3522 -0.3302 -0.8758
vn -0.9612 -0.1163 0.2503
vn 0.0926 -0.9420 0.3225
vn 0.6391 -0.3158 -0.7013
vn -0.3557 0.9327 -0.0592
vn -0.4339 -0.6154 0.6580
vn 0.1647 0.8109 -0.5616
vn -0.7416 -0.0350 0.6699
vn 0.5369 -0.8063 -0.2482
vn 0.5132 0.2749 -0.8131
vn 0.9646 -0.2165 -0.1508
vn 0.6360 -0.7666 0.0886
vn 0.8418 0.4350 -0.3196
vn -0.8517 0.5231 0.0331
vn 0.0099 -0.9580 0.2865
vn -0.3436 0.9176 -0.1996
vn -0.6209 -0.7012 0.3504
vn 0.3251 0.8828 -0.3389
vn -0.2097 -0.2822 -0.9362
vn -0.3437 0.9176 -0.1996
vn 0.3252 0.8828 -0.3389
vn -0.9872 -0.0500 0.1515
vn -0.0077 -0.2650 -0.9642
vn 0.2491 0.9683 -0.0174
vn -0.1167 0.3811 -0.9171
vn -0.1085 0.9053 -0.4106
vn 0.0325 0.9573 0.2872
vn 0.1643 0.5671 0.8071
vn 0.2047 -0.0581 0.9771
vn 0.0490 -0.7790 -0.6251
vn 0.1512 -0.6890 0.7088
vn 0.0751 -0.9962 0.0450
vn 0.7476 0.6380 0.1843
vn 0.4049 -0.5848 0.7030
vn -0.1863 0.8106 -0.5551
vn 0.6425 0.0381 0.7653
vn -0.4171 -0.8629 -0.2854
vn -0.4812 0.2602 -0.8371
vn 0.5831 0.6448 0.4942
vn -0.0268 -0.9533 0.3007
vn -0.5636 -0.3765 -0.7352
vn 0.9986 -0.0171 -0.0505
vn 0.1015 -0.9416 0.3211
vn -0.7852 -0.3879 -0.4828
vn 0.2279 0.9623 -0.1488
vn 0.6694 -0.5596 0.4886
vn -0.4043 0.7821 -0.4742
vn 0.9077 0.0485 0.4168
vn -0.5043 -0.8590 -0.0884
vn -0.7574 0.2106 -0.6180
vn -0.9392 -0.3128 0.1414
vn -0.5015 -0.8242 0.2632
vn -0.9375 0.3449 -0.0466
vn 0.7666 0.6050 -0.2153
vn 0.1709 -0.9499 0.2618
vn 0.1759 0.9439 -0.2793
vn 0.7633 -0.6311 0.1380
vn -0.4971 0.8412 -0.2127
vn -0.0532 -0.2742 -0.9602
vn 0.0799 -0.7437 0.6637
vn -0.0435 -0.9982 0.0409
vn -0.1465 -0.7857 -0.6011
vn -0.1810 -0.2055 -0.9618
vn -0.1308 0.4708 -0.8725
vn -0.0194 0.9269 -0.3749
vn 0.1011 0.9492 0.2980
vn -0.9834 0.0500 0.1744
vn 0.1742 0.5274 0.8316
vn 0.1659 -0.1412 0.9760
vn 0.2764 -0.2775 0.9201
vn 0.3354 0.9386 -0.0804
vn 0.2221 0.3768 0.8993
vn 0.1186 0.9053 0.4078
vn 0.0325 0.9537 -0.2991
vn -0.0487 0.5603 -0.8269
vn -0.1268 -0.0633 -0.9899
vn 0.1703 -0.7894 0.5898
vn -0.1530 -0.6897 -0.7077
vn -0.0416 -0.9979 -0.0494
vn 0.7077 0.5639 -0.4257
vn 0.0981 -0.6111 -0.7854
vn 0.0825 0.8165 0.5713
vn 0.3631 -0.0139 -0.9316
vn -0.3860 -0.8217 0.4192
vn -0.1588 0.2937 0.9426
vn 0.4539 0.5916 -0.6664
vn -0.2155 -0.9414 -0.2595
vn -0.3318 -0.3302 0.8837
vn 0.9551 -0.1163 -0.2725
vn -0.1001 -0.9420 -0.3203
vn -0.6226 -0.3158 0.7160
vn 0.3570 0.9327 0.0509
vn 0.4186 -0.6155 -0.6678
vn -0.1517 0.8109 0.5652
vn 0.7259 -0.0349 -0.6869
vn -0.5310 -0.8063 0.2606
vn -0.4942 0.2749 0.8247
vn -0.9608 -0.2164 0.1731
vn -0.6379 -0.7666 -0.0738
vn -0.8342 0.4350 0.3391
vn 0.8507 0.5231 -0.0528
vn -0.0165 -0.9580 -0.2862
vn -0.9608 -0.2165 0.1731
vn 0.3482 0.9176 0.1916
vn 0.6126 -0.7012 -0.3647
vn -0.3172 0.8828 0.3464
vn 0.2313 -0.2822 0.9311
vn 0.9834 -0.0500 -0.1744
vn 0.0300 -0.2650 0.9638
vn -0.2487 0.9683 0.0232
vn 0.1379 0.3811 0.9142
vn 0.1180 0.9053 0.4080
vn -0.0392 0.9573 -0.2864
vn -0.1830 0.5671 -0.8031
vn -0.2272 -0.0581 -0.9721
vn -0.0345 -0.7790 0.6261
vn -0.1676 -0.6890 -0.7051
vn -0.0762 -0.9962 -0.0433
vn -0.7517 0.6380 -0.1669
vn -0.4210 -0.5848 -0.6934
vn 0.1991 0.8106 0.5507
vn -0.6601 0.0381 -0.7502
vn 0.4236 -0.8629 0.2757
vn 0.5005 0.2602 0.8257
vn -0.5944 0.6448 -0.4805
vn 0.0198 -0.9533 -0.3012
vn 0.5805 -0.3766 0.7219
vn -0.9971 -0.0171 0.0736
vn -0.1089 -0.9416 -0.3187
vn 0.7962 -0.3879 0.4644
vn -0.2244 0.9623 0.1540
vn -0.6806 -0.5596 -0.4730
vn 0.4152 0.7821 0.4647
vn -0.9171 0.0485 -0.3956
vn 0.5062 -0.8590 0.0767
vn 0.7715 0.2106 0.6003
vn 0.9357 -0.3128 -0.1631
vn 0.4953 -0.8242 -0.2747
vn 0.9383 0.3449 0.0248
vn -0.7614 0.6050 0.2330
vn -0.1769 -0.9499 -0.2578
vn -0.1694 0.9439 0.2833
vn -0.7663 -0.6311 -0.1202
vn 0.5019 0.8412 0.2011
vn 0.0755 -0.2742 0.9587
vn -0.1694 0.9439 0.2834
vn 0.9891 -0.0000 -0.1476
vn 0.1476 -0.0000 0.9890
vn -0.9891 -0.0000 0.1476
vn -0.1476 -0.0000 -0.9890
vn -0.0000 -1.0000 -0.0000
vn -0.0000 1.0000 -0.0000
vn 0.3420 -0.0000 -0.9397
vn 0.8660 -0.0000 -0.5000
vn 0.9848 -0.0000 0.1736
vn 0.6428 -0.0000 0.7660
vn -0.0000 -0.0000 1.0000
vn -0.6428 -0.0000 0.7660
vn -0.9848 -0.0000 0.1736
vn 0.9848 -0.0000 -0.1736
vn -0.8660 -0.0000 -0.5000
vn -0.3420 -0.0000 -0.9397
vn -0.6428 -0.0000 -0.7660
vn -0.3420 -0.0000 0.9397
vn 0.8660 -0.0000 0.5000
vn -0.0000 -0.0000 -1.0000
vn -0.8660 -0.0000 0.5000
vn 0.3420 -0.0000 0.9397
vn 0.6428 -0.0000 -0.7660
vn -0.9848 -0.0000 -0.1736
vn -0.1772 0.3167 -0.9318
vn -0.0454 0.8502 -0.5245
vn 0.1075 0.9859 0.1282
vn 0.2102 0.6603 0.7210
vn 0.2145 0.0257 0.9764
vn 0.1185 -0.6209 0.7749
vn -0.0330 -0.9770 0.2108
vn -0.1799 0.3341 -0.9252
vn -0.1691 -0.8759 -0.4519
vn -0.2260 -0.3650 -0.9032
vn -0.2260 -0.3650 -0.9031
vn -0.4684 0.8631 0.1890
vn 0.0684 0.9894 0.1283
vn -0.0705 0.8632 -0.4999
vn -0.2319 -0.3837 -0.8939
vn -0.2061 -0.8857 -0.4161
vn -0.0904 -0.9733 0.2109
vn 0.0895 -0.6445 0.7593
vn 0.1906 0.6807 0.7074
vn 0.0791 0.0616 0.9950
vn 0.1618 -0.9753 0.1503
vn -0.1995 0.6582 0.7260
vn -0.3356 0.2591 -0.9057
vn 0.0621 -0.9312 -0.3591
vn 0.1810 0.0989 0.9785
vn -0.5212 0.7405 -0.4243
vn -0.0469 -0.4722 -0.8803
vn 0.3432 -0.6289 0.6977
vn -0.5589 0.2635 0.7862
vn -0.8378 0.3023 -0.4546
vn 0.2409 -0.1894 -0.9519
vn 0.6531 -0.2000 0.7304
vn -0.8940 0.3895 0.2215
vn 0.9215 -0.3681 0.1240
vn -0.5319 0.2944 0.7940
vn -0.3896 0.0737 -0.9180
vn 0.7587 -0.3639 -0.5404
vn -0.3984 0.0752 -0.9141
vn 0.7244 -0.4643 -0.5096
vn 0.0719 0.0618 0.9955
vn -0.8593 0.2727 -0.4327
vn 0.2533 -0.2221 -0.9415
vn 0.6615 -0.2323 0.7131
vn -0.9145 0.3342 0.2281
vn 0.8774 -0.4676 0.1076
vn 0.9741 -0.0787 -0.2119
vn -0.0455 0.8502 -0.5245
vn 0.6933 0.0132 0.7206
vn 0.2766 0.0296 -0.9605
vn -0.8976 -0.0266 -0.4401
vn 0.0685 -0.0168 0.9975
vn 0.8291 0.0434 -0.5574
vn -0.4053 0.0019 -0.9142
vn -0.5883 -0.0388 0.8077
vn 0.9936 0.0369 0.1065
vn -0.9698 -0.0427 0.2400
vn 0.3555 -0.1227 -0.9266
vn 0.8709 -0.1187 -0.4770
vn 0.9795 -0.1174 0.1639
vn 0.6577 -0.1207 0.7436
vn -0.0000 -0.1234 0.9924
vn -0.6577 -0.1207 0.7436
vn -0.9795 -0.1174 0.1639
vn -0.8709 -0.1187 -0.4770
vn -0.3555 -0.1227 -0.9266
vn -0.9795 -0.1174 0.1638
vt 0.375000 0.000000
vt 0.625000 0.000000
vt 0.625000 0.250000
vt 0.375000 0.250000
vt 0.375000 0.500000
vt 0.125000 0.500000
vt 0.625000 0.500000
vt 0.625000 0.750000
vt 0.375000 0.750000
vt 0.625000 1.000000
vt 0.375000 1.000000
vt 0.125000 0.750000
vt 0.875000 0.500000
vt 0.875000 0.750000
vt 1.000000 0.500000
vt 1.000000 1.000000
vt 0.888889 1.000000
vt 0.888889 0.500000
vt 0.777778 1.000000
vt 0.777778 0.500000
vt 0.666667 1.000000
vt 0.666667 0.500000
vt 0.555556 1.000000
vt 0.555556 0.500000
vt 0.444444 1.000000
vt 0.444444 0.500000
vt 0.333333 1.000000
vt 0.333333 0.500000
vt 0.222222 1.000000
vt 0.222222 0.500000
vt 0.404269 0.433851
vt 0.250000 0.490000
vt 0.095731 0.433851
vt 0.013646 0.291676
vt 0.042154 0.130000
vt 0.167915 0.024474
vt 0.332085 0.024474
vt 0.457846 0.130000
vt 0.486354 0.291676
vt 0.111111 1.000000
vt 0.111111 0.500000
vt 0.000000 1.000000
vt 0.000000 0.500000
vt 0.750000 0.490000
vt 0.904269 0.433851
vt 0.986354 0.291676
vt 0.957846 0.130000
vt 0.832085 0.024474
vt 0.667915 0.024474
vt 0.542154 0.130000
vt 0.513646 0.291676
vt 0.595731 0.433851
vt 0.111111 0.548146
vt 0.000000 0.548146
vt 0.777778 0.548146
vt 0.666667 0.548146
vt 0.555556 0.548146
vt 0.444444 0.548146
vt 0.333333 0.548146
vt 0.222222 0.548146
vt 1.000000 0.548146
vt 0.888889 0.548146
vt 0.904269 0.433851
vt 0.832085 0.024474
vt 0.667915 0.024474
vt 0.595731 0.433851
vt 0.404269 0.433851
vt 0.250000 0.424054
vt 0.361880 0.383333
vt 0.486354 0.291676
vt 0.421410 0.280224
vt 0.400736 0.162973
vt 0.332085 0.024474
vt 0.309530 0.086442
vt 0.167915 0.024474
vt 0.190470 0.086442
vt 0.099264 0.162973
vt 0.013646 0.291676
vt 0.078590 0.280224
vt 0.095731 0.433851
vt 0.138120 0.383333
vt 0.111111 0.586487
vt 0.000000 0.586487
vt 0.222222 0.586487
vt 0.333333 0.586487
vt 0.444444 0.586487
vt 0.555556 0.586487
vt 0.666667 0.586487
vt 0.777778 0.633788
vt 0.666667 0.633788
vt 0.777778 0.586487
vt 1.000000 0.693238
vt 1.000000 0.750000
vt 0.888889 0.750000
vt 0.888889 0.693238
vt 1.000000 0.586487
vt 0.888889 0.586487
vt 0.555556 0.633788
vt 0.555556 0.633788
vt 0.444444 0.633788
vt 0.444444 0.633788
vt 0.333333 0.633788
vt 0.222222 0.633788
vt 0.222222 0.633788
vt 0.111111 0.633788
vt 0.000000 0.633788
vt 0.888889 0.633788
vt 0.777778 0.633788
vt 0.777778 0.750000
vt 0.777778 0.693238
vt 0.666667 0.750000
vt 0.666667 0.693238
vt 0.555556 0.750000
vt 0.555556 0.693238
vt 0.444444 0.750000
vt 0.444444 0.693238
vt 0.333333 0.750000
vt 0.333333 0.693238
vt 0.222222 0.750000
vt 0.222222 0.693238
vt 0.111111 0.750000
vt 0.111111 0.693238
vt 0.111111 0.693238
vt 0.000000 0.750000
vt 0.000000 0.693238
vt 1.000000 0.633788
vt 0.057682 0.283911
vt 0.080879 0.152358
vt 0.250000 0.482384
vt 0.399374 0.428017
vt 0.478854 0.290353
vt 0.451251 0.133808
vt 0.329480 0.031630
vt 0.170520 0.031630
vt 0.048749 0.133808
vt 0.021146 0.290353
vt 0.100626 0.428017
vt 0.250000 0.445285
vt 0.375527 0.399597
vt 0.442318 0.283911
vt 0.419122 0.152358
vt 0.316791 0.066492
vt 0.183209 0.066492
vt 0.124473 0.399597
vt 0.444445 1.000000
vt 0.111111 1.000000
vt 0.777778 1.000000
vt 0.666667 1.000000
vt 0.042154 0.130000
vt 0.457846 0.130000
s 0
f 1/1/1 2/2/1 4/3/1 3/4/1
f 7/5/2 3/6/2 10/6/2 11/5/2
f 7/5/3 8/7/3 6/8/3 5/9/3
f 5/9/4 6/8/4 2/10/4 1/11/4
f 3/6/5 7/5/5 5/9/5 1/12/5
f 8/7/6 4/13/6 2/14/6 6/8/6
f 12/7/7 11/5/7 15/5/7 16/7/7
f 4/13/8 8/7/8 12/7/8 9/13/8
f 3/4/9 4/3/9 9/3/9 10/4/9
f 8/7/10 7/5/10 11/5/10 12/7/10
f 14/4/11 13/3/11 16/7/11 15/5/11
f 11/5/12 10/6/12 14/6/12 15/5/12
f 9/13/13 12/7/13 16/7/13 13/13/13
f 10/4/14 9/3/14 13/3/14 14/4/14
f 17/15/15 18/16/15 20/17/15 19/18/15
f 19/18/16 20/17/16 22/19/16 21/20/16
f 21/20/17 22/19/17 24/21/17 23/22/17
f 23/22/18 24/21/18 26/23/18 25/24/18
f 25/24/19 26/23/19 28/25/19 27/26/19
f 27/26/20 28/25/20 30/27/20 29/28/20
f 29/28/21 30/27/21 32/29/21 31/30/21
f 20/31/22 18/32/22 34/33/22 32/34/22 30/35/22 28/36/22 26/37/22 24/38/22 22/39/22
f 31/30/23 32/29/23 34/40/23 33/41/23
f 33/41/24 34/40/24 18/42/24 17/43/24
f 33/41/25 17/43/25 35/43/25 43/41/25
f 40/26/26 41/28/26 50/28/26 49/26/26
f 31/30/27 33/41/27 43/41/27 42/30/27
f 29/28/28 31/30/28 42/30/28 41/28/28
f 27/26/29 29/28/29 41/28/29 40/26/29
f 25/24/30 27/26/30 40/26/30 39/24/30
f 23/22/31 25/24/31 39/24/31 38/22/31
f 17/15/32 19/18/32 36/18/32 35/15/32
f 21/20/33 23/22/33 38/22/33 37/20/33
f 19/18/34 21/20/34 37/20/34 36/18/34
f 48/24/35 49/26/35 58/26/35 57/24/35
f 37/20/36 38/22/36 47/22/36 46/20/36
f 41/28/37 42/30/37 51/30/37 50/28/37
f 38/22/38 39/24/38 48/24/38 47/22/38
f 35/15/39 36/18/39 45/18/39 44/15/39
f 42/30/40 43/41/40 52/41/40 51/30/40
f 39/24/41 40/26/41 49/26/41 48/24/41
f 36/18/42 37/20/42 46/20/42 45/18/42
f 43/41/43 35/43/43 44/43/43 52/41/43
f 56/22/44 57/24/44 66/24/44 65/22/44
f 45/18/45 46/20/45 55/20/45 54/18/45
f 52/41/46 44/43/46 53/43/46 61/41/46
f 49/26/47 50/28/47 59/28/47 58/26/47
f 46/20/48 47/22/48 56/22/48 55/20/48
f 50/28/49 51/30/49 60/30/49 59/28/49
f 47/22/50 48/24/50 57/24/50 56/22/50
f 44/15/51 45/18/51 54/18/51 53/15/51
f 51/30/52 52/41/52 61/41/52 60/30/52
f 70/41/53 62/43/53 71/43/53 79/41/53
f 53/15/54 54/18/54 63/18/54 62/15/54
f 60/30/55 61/41/55 70/41/55 69/30/55
f 57/24/56 58/26/56 67/26/56 66/24/56
f 54/18/57 55/20/57 64/20/57 63/18/57
f 61/41/53 53/43/53 62/43/53 70/41/53
f 58/26/58 59/28/58 68/28/58 67/26/58
f 55/20/59 56/22/59 65/22/59 64/20/59
f 59/28/60 60/30/60 69/30/60 68/28/60
f 71/44/61 72/45/61 73/46/61 74/47/61 75/48/61 76/49/61 77/50/61 78/51/61 79/52/61
f 67/26/58 68/28/58 77/28/58 76/26/58
f 64/20/59 65/22/59 74/22/59 73/20/59
f 68/28/60 69/30/60 78/30/60 77/28/60
f 65/22/44 66/24/44 75/24/44 74/22/44
f 62/15/54 63/18/54 72/18/54 71/15/54
f 69/30/55 70/41/55 79/41/55 78/30/55
f 66/24/56 67/26/56 76/26/56 75/24/56
f 63/18/57 64/20/57 73/20/57 72/18/57
f 88/41/62 106/53/62 90/54/62 80/43/62
f 82/20/63 94/55/63 96/56/63 83/22/63
f 83/22/64 96/56/64 98/57/64 84/24/64
f 84/24/65 98/57/65 100/58/65 85/26/65
f 85/26/66 100/58/66 102/59/66 86/28/66
f 86/28/67 102/59/67 104/60/67 87/30/67
f 87/30/68 104/60/68 106/53/68 88/41/68
f 80/15/69 90/61/69 92/62/69 81/18/69
f 81/18/70 92/62/70 94/55/70 82/20/70
f 80/44/71 81/63/71 82/46/71 83/47/71 84/64/71 85/65/71 86/50/71 87/51/71 88/66/71
f 92/67/72 90/32/72 89/68/72 91/69/72
f 94/70/73 92/67/73 91/69/73 93/71/73
f 96/38/74 94/70/74 93/71/74 95/72/74
f 98/73/75 96/38/75 95/72/75 97/74/75
f 100/75/76 98/73/76 97/74/76 99/76/76
f 102/35/77 100/75/77 99/76/77 101/77/77
f 104/78/78 102/35/78 101/77/78 103/79/78
f 106/80/79 104/78/79 103/79/79 105/81/79
f 90/32/80 106/80/80 105/81/80 89/68/80
f 91/69/81 89/68/81 105/81/81 103/79/81 101/77/81 99/76/81 97/74/81 95/72/81 93/71/81
f 107/15/15 109/18/15 110/17/15 108/16/15
f 109/18/16 111/20/16 112/19/16 110/17/16
f 111/20/17 113/22/17 114/21/17 112/19/17
f 113/22/18 115/24/18 116/23/18 114/21/18
f 115/24/82 117/26/82 118/25/82 116/23/82
f 117/26/20 119/28/20 120/27/20 118/25/20
f 119/28/21 121/30/21 122/29/21 120/27/21
f 110/31/83 112/39/83 114/38/83 116/37/83 118/36/83 120/35/83 122/34/83 124/33/83 108/32/83
f 121/30/23 123/41/23 124/40/23 122/29/23
f 123/41/84 107/43/84 108/42/84 124/40/84
f 123/41/85 133/41/85 125/43/85 107/43/85
f 130/26/86 139/26/86 140/28/86 131/28/86
f 121/30/87 132/30/87 133/41/87 123/41/87
f 119/28/88 131/28/88 132/30/88 121/30/88
f 117/26/89 130/26/89 131/28/89 119/28/89
f 115/24/90 129/24/90 130/26/90 117/26/90
f 113/22/91 128/22/91 129/24/91 115/24/91
f 107/15/92 125/15/92 126/18/92 109/18/92
f 111/20/93 127/20/93 128/22/93 113/22/93
f 109/18/94 126/18/94 127/20/94 111/20/94
f 138/24/95 147/24/95 148/26/95 139/26/95
f 127/20/96 136/20/96 137/22/96 128/22/96
f 131/28/97 140/28/97 141/30/97 132/30/97
f 128/22/98 137/22/98 138/24/98 129/24/98
f 125/15/99 134/15/99 135/18/99 126/18/99
f 132/30/100 141/30/100 142/41/100 133/41/100
f 129/24/101 138/24/101 139/26/101 130/26/101
f 126/18/102 135/18/102 136/20/102 127/20/102
f 133/41/103 142/41/103 134/43/103 125/43/103
f 146/22/104 155/22/104 156/24/104 147/24/104
f 135/18/105 144/18/105 145/20/105 136/20/105
f 142/41/106 151/41/106 143/43/106 134/43/106
f 139/26/107 148/26/107 149/28/107 140/28/107
f 136/20/108 145/20/108 146/22/108 137/22/108
f 140/28/109 149/28/109 150/30/109 141/30/109
f 137/22/110 146/22/110 147/24/110 138/24/110
f 134/15/111 143/15/111 144/18/111 135/18/111
f 141/30/112 150/30/112 151/41/112 142/41/112
f 160/41/113 169/41/113 161/43/113 152/43/113
f 143/15/114 152/15/114 153/18/114 144/18/114
f 150/30/115 159/30/115 160/41/115 151/41/115
f 147/24/116 156/24/116 157/26/116 148/26/116
f 144/18/117 153/18/117 154/20/117 145/20/117
f 151/41/113 160/41/113 152/43/113 143/43/113
f 148/26/118 157/26/118 158/28/118 149/28/118
f 145/20/119 154/20/119 155/22/119 146/22/119
f 149/28/120 158/28/120 159/30/120 150/30/120
f 161/44/121 169/52/121 168/51/121 167/50/121 166/49/121 165/48/121 164/47/121 163/46/121 162/45/121
f 157/26/118 166/26/118 167/28/118 158/28/118
f 154/20/119 163/20/119 164/22/119 155/22/119
f 158/28/120 167/28/120 168/30/120 159/30/120
f 155/22/104 164/22/104 165/24/104 156/24/104
f 152/15/114 161/15/114 162/18/114 153/18/114
f 159/30/115 168/30/115 169/41/115 160/41/115
f 156/24/116 165/24/116 166/26/116 157/26/116
f 153/18/117 162/18/117 163/20/117 154/20/117
f 178/41/122 170/43/122 180/54/122 196/53/122
f 172/20/123 173/22/123 186/56/123 184/55/123
f 173/22/124 174/24/124 188/57/124 186/56/124
f 174/24/125 175/26/125 190/58/125 188/57/125
f 175/26/126 176/28/126 192/59/126 190/58/126
f 176/28/127 177/30/127 194/60/127 192/59/127
f 177/30/128 178/41/128 196/53/128 194/60/128
f 170/15/129 171/18/129 182/62/129 180/61/129
f 171/18/130 172/20/130 184/55/130 182/62/130
f 170/44/131 178/66/131 177/51/131 176/50/131 175/65/131 174/64/131 173/47/131 172/46/131 171/63/131
f 182/67/132 181/69/132 179/68/132 180/32/132
f 184/70/133 183/71/133 181/69/133 182/67/133
f 186/38/134 185/72/134 183/71/134 184/70/134
f 188/73/135 187/74/135 185/72/135 186/38/135
f 190/75/136 189/76/136 187/74/136 188/73/136
f 192/35/137 191/77/137 189/76/137 190/75/137
f 194/78/138 193/79/138 191/77/138 192/35/138
f 196/80/139 195/81/139 193/79/139 194/78/139
f 180/32/140 179/68/140 195/81/140 196/80/140
f 181/69/141 183/71/141 185/72/141 187/74/141 189/76/141 191/77/141 193/79/141 195/81/141 179/68/141
f 197/44/142 198/45/142 199/46/142 200/47/142 201/64/142 202/65/142 203/50/142 204/51/142 205/52/142
f 205/41/143 222/82/143 223/83/143 197/43/143
f 204/30/144 221/84/144 222/82/144 205/41/144
f 203/28/145 220/85/145 221/84/145 204/30/145
f 202/26/146 219/86/146 220/85/146 203/28/146
f 201/24/147 218/87/147 219/86/147 202/26/147
f 200/22/148 217/88/148 218/87/148 201/24/148
f 227/89/149 229/90/149 217/88/149 216/91/149
f 199/20/149 216/91/149 217/88/149 200/22/149
f 241/92/150 206/93/150 207/94/150 224/95/150
f 197/15/151 223/96/151 215/97/151 198/18/151
f 229/90/152 231/98/152 218/87/152 217/88/152
f 231/99/147 233/100/147 219/86/147 218/87/147
f 233/101/146 235/102/146 220/85/146 219/86/146
f 235/102/145 237/103/145 221/84/145 220/85/145
f 237/104/144 239/105/144 222/82/144 221/84/144
f 239/105/143 240/106/143 223/83/143 222/82/143
f 225/107/153 227/108/153 216/91/153 215/97/153
f 224/95/154 207/94/154 208/109/154 226/110/154
f 226/110/155 208/109/155 209/111/155 228/112/155
f 228/112/156 209/111/156 210/113/156 230/114/156
f 230/114/157 210/113/157 211/115/157 232/116/157
f 232/116/158 211/115/158 212/117/158 234/118/158
f 234/118/159 212/117/159 213/119/159 236/120/159
f 236/120/160 213/119/160 214/121/160 238/122/160
f 238/123/161 214/121/161 206/124/161 241/125/161
f 198/18/153 215/97/153 216/91/153 199/20/153
f 241/92/151 224/95/151 225/107/151 240/126/151
f 224/95/162 226/110/162 227/108/162 225/107/162
f 226/110/149 228/112/149 229/90/149 227/89/149
f 228/112/148 230/114/148 231/98/148 229/90/148
f 230/114/147 232/116/147 233/100/147 231/99/147
f 232/116/146 234/118/146 235/102/146 233/101/146
f 234/118/145 236/120/145 237/103/145 235/102/145
f 236/120/144 238/122/144 239/105/144 237/104/144
f 238/123/143 241/125/143 240/106/143 239/105/143
f 240/126/151 225/107/151 215/97/151 223/96/151
f 208/109/163 207/94/163 243/94/163 244/109/163
f 211/115/164 210/113/164 246/113/164 247/115/164
f 214/121/165 213/119/165 249/119/165 250/121/165
f 207/94/166 206/93/166 242/93/166 243/94/166
f 210/113/167 209/111/167 245/111/167 246/113/167
f 213/119/168 212/117/168 248/117/168 249/119/168
f 209/111/169 208/109/169 244/109/169 245/111/169
f 212/117/170 211/115/170 247/115/170 248/117/170
f 206/124/171 214/121/171 250/121/171 242/124/171
f 249/119/172 248/117/172 257/117/172 258/119/172
f 245/111/173 244/109/173 253/109/173 254/111/173
f 248/117/174 247/115/174 256/115/174 257/117/174
f 242/124/175 250/121/175 259/121/175 251/124/175
f 244/109/176 243/94/176 252/94/176 253/109/176
f 247/115/177 246/113/177 255/113/177 256/115/177
f 250/121/178 249/119/178 258/119/178 259/121/178
f 243/94/179 242/93/179 251/93/179 252/94/179
f 246/113/180 245/111/180 254/111/180 255/113/180
f 260/15/181 261/16/181 263/17/181 262/18/181
f 262/18/182 263/17/182 265/19/182 264/20/182
f 264/20/183 265/19/183 267/21/183 266/22/183
f 266/22/184 267/21/184 269/23/184 268/24/184
f 268/24/185 269/23/185 271/25/185 270/26/185
f 270/26/186 271/25/186 273/27/186 272/28/186
f 272/28/187 273/27/187 275/29/187 274/30/187
f 263/31/188 261/32/188 277/33/188 275/34/188 273/35/188 271/36/188 269/37/188 267/38/188 265/39/188
f 274/30/189 275/29/189 277/40/189 276/41/189
f 276/41/190 277/40/190 261/42/190 260/43/190
f 276/41/191 260/43/191 278/43/191 286/41/191
f 283/26/192 284/28/192 293/28/192 292/26/192
f 274/30/193 276/41/193 286/41/193 285/30/193
f 272/28/194 274/30/194 285/30/194 284/28/194
f 270/26/195 272/28/195 284/28/195 283/26/195
f 268/24/196 270/26/196 283/26/196 282/24/196
f 266/22/197 268/24/197 282/24/197 281/22/197
f 260/15/198 262/18/198 279/18/198 278/15/198
f 264/20/199 266/22/199 281/22/199 280/20/199
f 262/18/200 264/20/200 280/20/200 279/18/200
f 291/24/201 292/26/201 301/26/201 300/24/201
f 280/20/202 281/22/202 290/22/202 289/20/202
f 284/28/203 285/30/203 294/30/203 293/28/203
f 281/22/204 282/24/204 291/24/204 290/22/204
f 278/15/205 279/18/205 288/18/205 287/15/205
f 285/30/206 286/41/206 295/41/206 294/30/206
f 282/24/207 283/26/207 292/26/207 291/24/207
f 279/18/208 280/20/208 289/20/208 288/18/208
f 286/41/209 278/43/209 287/43/209 295/41/209
f 299/22/210 300/24/210 309/24/210 308/22/210
f 288/18/211 289/20/211 298/20/211 297/18/211
f 295/41/212 287/43/212 296/43/212 304/41/212
f 292/26/213 293/28/213 302/28/213 301/26/213
f 289/20/214 290/22/214 299/22/214 298/20/214
f 293/28/215 294/30/215 303/30/215 302/28/215
f 290/22/216 291/24/216 300/24/216 299/22/216
f 287/15/217 288/18/217 297/18/217 296/15/217
f 294/30/218 295/41/218 304/41/218 303/30/218
f 313/41/219 305/43/219 314/43/219 322/41/219
f 296/15/220 297/18/220 306/18/220 305/15/220
f 303/30/221 304/41/221 313/41/221 312/30/221
f 300/24/222 301/26/222 310/26/222 309/24/222
f 297/18/223 298/20/223 307/20/223 306/18/223
f 304/41/219 296/43/219 305/43/219 313/41/219
f 301/26/224 302/28/224 311/28/224 310/26/224
f 298/20/225 299/22/225 308/22/225 307/20/225
f 302/28/226 303/30/226 312/30/226 311/28/226
f 314/44/227 315/45/227 316/46/227 317/47/227 318/48/227 319/49/227 320/50/227 321/51/227 322/52/227
f 310/26/228 311/28/228 320/28/228 319/26/228
f 307/20/225 308/22/225 317/22/225 316/20/225
f 311/28/229 312/30/229 321/30/229 320/28/229
f 308/22/210 309/24/210 318/24/210 317/22/210
f 305/15/220 306/18/220 315/18/220 314/15/220
f 312/30/221 313/41/221 322/41/221 321/30/221
f 309/24/222 310/26/222 319/26/222 318/24/222
f 306/18/223 307/20/223 316/20/223 315/18/223
f 323/15/181 325/18/181 326/17/181 324/16/181
f 325/18/182 327/20/182 328/19/182 326/17/182
f 327/20/183 329/22/183 330/21/183 328/19/183
f 329/22/184 331/24/184 332/23/184 330/21/184
f 331/24/185 333/26/185 334/25/185 332/23/185
f 333/26/186 335/28/186 336/27/186 334/25/186
f 335/28/187 337/30/187 338/29/187 336/27/187
f 326/31/230 328/39/230 330/38/230 332/37/230 334/36/230 336/35/230 338/34/230 340/33/230 324/32/230
f 337/30/189 339/41/189 340/40/189 338/29/189
f 339/41/190 323/43/190 324/42/190 340/40/190
f 339/41/231 349/41/231 341/43/231 323/43/231
f 346/26/232 355/26/232 356/28/232 347/28/232
f 337/30/233 348/30/233 349/41/233 339/41/233
f 335/28/234 347/28/234 348/30/234 337/30/234
f 333/26/235 346/26/235 347/28/235 335/28/235
f 331/24/236 345/24/236 346/26/236 333/26/236
f 329/22/237 344/22/237 345/24/237 331/24/237
f 323/15/238 341/15/238 342/18/238 325/18/238
f 327/20/239 343/20/239 344/22/239 329/22/239
f 325/18/240 342/18/240 343/20/240 327/20/240
f 354/24/241 363/24/241 364/26/241 355/26/241
f 343/20/242 352/20/242 353/22/242 344/22/242
f 347/28/243 356/28/243 357/30/243 348/30/243
f 344/22/244 353/22/244 354/24/244 345/24/244
f 341/15/245 350/15/245 351/18/245 342/18/245
f 348/30/246 357/30/246 358/41/246 349/41/246
f 345/24/247 354/24/247 355/26/247 346/26/247
f 342/18/248 351/18/248 352/20/248 343/20/248
f 349/41/249 358/41/249 350/43/249 341/43/249
f 362/22/250 371/22/250 372/24/250 363/24/250
f 351/18/251 360/18/251 361/20/251 352/20/251
f 358/41/252 367/41/252 359/43/252 350/43/252
f 355/26/253 364/26/253 365/28/253 356/28/253
f 352/20/254 361/20/254 362/22/254 353/22/254
f 356/28/255 365/28/255 366/30/255 357/30/255
f 353/22/256 362/22/256 363/24/256 354/24/256
f 350/15/257 359/15/257 360/18/257 351/18/257
f 357/30/258 366/30/258 367/41/258 358/41/258
f 376/41/259 385/41/259 377/43/259 368/43/259
f 359/15/260 368/15/260 369/18/260 360/18/260
f 366/30/261 375/30/261 376/41/261 367/41/261
f 363/24/262 372/24/262 373/26/262 364/26/262
f 360/18/263 369/18/263 370/20/263 361/20/263
f 367/41/259 376/41/259 368/43/259 359/43/259
f 364/26/264 373/26/264 374/28/264 365/28/264
f 361/20/265 370/20/265 371/22/265 362/22/265
f 365/28/266 374/28/266 375/30/266 366/30/266
f 377/44/267 385/52/267 384/51/267 383/50/267 382/49/267 381/48/267 380/47/267 379/46/267 378/45/267
f 373/26/264 382/26/264 383/28/264 374/28/264
f 370/20/265 379/20/265 380/22/265 371/22/265
f 374/28/266 383/28/266 384/30/266 375/30/266
f 371/22/250 380/22/250 381/24/250 372/24/250
f 368/15/260 377/15/260 378/18/260 369/18/260
f 375/30/261 384/30/261 385/41/261 376/41/261
f 372/24/262 381/24/262 382/26/262 373/26/262
f 369/18/263 378/18/263 379/20/263 370/20/263
f 386/15/268 387/16/268 389/17/268 388/18/268
f 388/18/269 389/17/269 391/19/269 390/20/269
f 390/20/270 391/19/270 393/21/270 392/22/270
f 392/22/271 393/21/271 395/23/271 394/24/271
f 394/24/272 395/23/272 397/25/272 396/26/272
f 396/26/273 397/25/273 399/27/273 398/28/273
f 398/28/274 399/27/274 401/29/274 400/30/274
f 389/31/275 387/32/275 403/33/275 401/34/275 399/35/275 397/36/275 395/37/275 393/38/275 391/39/275
f 400/30/276 401/29/276 403/40/276 402/41/276
f 402/41/277 403/40/277 387/42/277 386/43/277
f 402/41/278 386/43/278 404/43/278 412/41/278
f 409/26/279 410/28/279 419/28/279 418/26/279
f 400/30/280 402/41/280 412/41/280 411/30/280
f 398/28/281 400/30/281 411/30/281 410/28/281
f 396/26/282 398/28/282 410/28/282 409/26/282
f 394/24/283 396/26/283 409/26/283 408/24/283
f 392/22/284 394/24/284 408/24/284 407/22/284
f 386/15/285 388/18/285 405/18/285 404/15/285
f 390/20/286 392/22/286 407/22/286 406/20/286
f 388/18/287 390/20/287 406/20/287 405/18/287
f 417/24/288 418/26/288 427/26/288 426/24/288
f 406/20/289 407/22/289 416/22/289 415/20/289
f 410/28/290 411/30/290 420/30/290 419/28/290
f 407/22/291 408/24/291 417/24/291 416/22/291
f 404/15/292 405/18/292 414/18/292 413/15/292
f 411/30/293 412/41/293 421/41/293 420/30/293
f 408/24/294 409/26/294 418/26/294 417/24/294
f 405/18/295 406/20/295 415/20/295 414/18/295
f 412/41/296 404/43/296 413/43/296 421/41/296
f 425/22/297 426/24/297 435/24/297 434/22/297
f 414/18/298 415/20/298 424/20/298 423/18/298
f 421/41/299 413/43/299 422/43/299 430/41/299
f 418/26/300 419/28/300 428/28/300 427/26/300
f 415/20/301 416/22/301 425/22/301 424/20/301
f 419/28/302 420/30/302 429/30/302 428/28/302
f 416/22/303 417/24/303 426/24/303 425/22/303
f 413/15/304 414/18/304 423/18/304 422/15/304
f 420/30/305 421/41/305 430/41/305 429/30/305
f 439/41/306 431/43/306 440/43/306 448/41/306
f 422/15/307 423/18/307 432/18/307 431/15/307
f 429/30/308 430/41/308 439/41/308 438/30/308
f 426/24/309 427/26/309 436/26/309 435/24/309
f 423/18/310 424/20/310 433/20/310 432/18/310
f 430/41/311 422/43/311 431/43/311 439/41/311
f 427/26/312 428/28/312 437/28/312 436/26/312
f 424/20/313 425/22/313 434/22/313 433/20/313
f 428/28/314 429/30/314 438/30/314 437/28/314
f 440/44/315 441/45/315 442/46/315 443/47/315 444/48/315 445/49/315 446/50/315 447/51/315 448/52/315
f 436/26/312 437/28/312 446/28/312 445/26/312
f 433/20/313 434/22/313 443/22/313 442/20/313
f 437/28/314 438/30/314 447/30/314 446/28/314
f 434/22/297 435/24/297 444/24/297 443/22/297
f 431/15/307 432/18/307 441/18/307 440/15/307
f 438/30/308 439/41/308 448/41/308 447/30/308
f 435/24/309 436/26/309 445/26/309 444/24/309
f 432/18/310 433/20/310 442/20/310 441/18/310
f 449/15/268 451/18/268 452/17/268 450/16/268
f 451/18/269 453/20/269 454/19/269 452/17/269
f 453/20/270 455/22/270 456/21/270 454/19/270
f 455/22/271 457/24/271 458/23/271 456/21/271
f 457/24/272 459/26/272 460/25/272 458/23/272
f 459/26/273 461/28/273 462/27/273 460/25/273
f 461/28/274 463/30/274 464/29/274 462/27/274
f 452/31/316 454/39/316 456/38/316 458/37/316 460/36/316 462/35/316 464/34/316 466/33/316 450/32/316
f 463/30/276 465/41/276 466/40/276 464/29/276
f 465/41/277 449/43/277 450/42/277 466/40/277
f 465/41/317 475/41/317 467/43/317 449/43/317
f 472/26/318 481/26/318 482/28/318 473/28/318
f 463/30/319 474/30/319 475/41/319 465/41/319
f 461/28/320 473/28/320 474/30/320 463/30/320
f 459/26/321 472/26/321 473/28/321 461/28/321
f 457/24/322 471/24/322 472/26/322 459/26/322
f 455/22/323 470/22/323 471/24/323 457/24/323
f 449/15/324 467/15/324 468/18/324 451/18/324
f 453/20/325 469/20/325 470/22/325 455/22/325
f 451/18/326 468/18/326 469/20/326 453/20/326
f 480/24/327 489/24/327 490/26/327 481/26/327
f 469/20/328 478/20/328 479/22/328 470/22/328
f 473/28/329 482/28/329 483/30/329 474/30/329
f 470/22/330 479/22/330 480/24/330 471/24/330
f 467/15/331 476/15/331 477/18/331 468/18/331
f 474/30/332 483/30/332 484/41/332 475/41/332
f 471/24/333 480/24/333 481/26/333 472/26/333
f 468/18/334 477/18/334 478/20/334 469/20/334
f 475/41/335 484/41/335 476/43/335 467/43/335
f 488/22/336 497/22/336 498/24/336 489/24/336
f 477/18/337 486/18/337 487/20/337 478/20/337
f 484/41/338 493/41/338 485/43/338 476/43/338
f 481/26/339 490/26/339 491/28/339 482/28/339
f 478/20/340 487/20/340 488/22/340 479/22/340
f 482/28/341 491/28/341 492/30/341 483/30/341
f 479/22/342 488/22/342 489/24/342 480/24/342
f 476/15/343 485/15/343 486/18/343 477/18/343
f 483/30/344 492/30/344 493/41/344 484/41/344
f 502/41/345 511/41/345 503/43/345 494/43/345
f 485/15/346 494/15/346 495/18/346 486/18/346
f 492/30/347 501/30/347 502/41/347 493/41/347
f 489/24/348 498/24/348 499/26/348 490/26/348
f 486/18/349 495/18/349 496/20/349 487/20/349
f 493/41/345 502/41/345 494/43/345 485/43/345
f 490/26/350 499/26/350 500/28/350 491/28/350
f 487/20/351 496/20/351 497/22/351 488/22/351
f 491/28/352 500/28/352 501/30/352 492/30/352
f 503/44/353 511/52/353 510/51/353 509/50/353 508/49/353 507/48/353 506/47/353 505/46/353 504/45/353
f 499/26/354 508/26/354 509/28/354 500/28/354
f 496/20/351 505/20/351 506/22/351 497/22/351
f 500/28/352 509/28/352 510/30/352 501/30/352
f 497/22/336 506/22/336 507/24/336 498/24/336
f 494/15/346 503/15/346 504/18/346 495/18/346
f 501/30/347 510/30/347 511/41/347 502/41/347
f 498/24/348 507/24/348 508/26/348 499/26/348
f 495/18/349 504/18/349 505/20/349 496/20/349
f 512/1/355 513/2/355 515/3/355 514/4/355
f 514/4/356 515/3/356 519/7/356 518/5/356
f 518/5/357 519/7/357 517/8/357 516/9/357
f 516/9/358 517/8/358 513/10/358 512/11/358
f 514/6/359 518/5/359 516/9/359 512/12/359
f 519/7/360 515/13/360 513/14/360 517/8/360
f 520/15/361 539/16/361 538/17/361 522/18/361
f 522/18/362 538/17/362 540/19/362 524/20/362
f 524/20/363 540/19/363 541/21/363 526/22/363
f 526/22/364 541/21/364 542/23/364 528/24/364
f 528/24/365 542/23/365 543/25/365 530/26/365
f 530/26/366 543/25/366 544/27/366 532/28/366
f 532/28/367 544/27/367 545/29/367 534/30/367
f 535/127/368 533/128/368 562/128/368 563/127/368
f 534/30/369 545/29/369 546/40/369 536/41/369
f 536/41/370 546/40/370 539/42/370 520/43/370
f 520/44/359 522/63/359 524/46/359 526/47/359 528/64/359 530/65/359 532/50/359 534/51/359 536/66/359
f 548/129/360 547/130/360 538/67/360 539/32/360
f 547/130/360 549/131/360 540/70/360 538/67/360
f 549/131/360 550/132/360 541/38/360 540/70/360
f 550/132/360 551/133/360 542/73/360 541/38/360
f 551/133/360 552/134/360 543/75/360 542/73/360
f 552/134/360 553/135/360 544/35/360 543/75/360
f 553/135/360 554/136/360 545/78/360 544/35/360
f 554/136/360 555/137/360 546/80/360 545/78/360
f 555/137/360 548/129/360 539/32/360 546/80/360
f 521/138/360 523/139/360 547/130/360 548/129/360
f 523/139/360 525/140/360 549/131/360 547/130/360
f 525/140/360 527/141/360 550/132/360 549/131/360
f 527/141/360 529/142/360 551/133/360 550/132/360
f 529/142/360 531/143/360 552/134/360 551/133/360
f 531/143/360 533/128/360 553/135/360 552/134/360
f 533/128/360 535/127/360 554/136/360 553/135/360
f 535/127/360 537/144/360 555/137/360 554/136/360
f 537/144/360 521/138/360 548/129/360 555/137/360
f 556/139/360 557/138/360 564/144/360 563/127/360 562/128/360 561/143/360 560/142/360 559/141/360 558/140/360
f 529/142/371 527/141/371 559/141/371 560/142/371
f 523/139/372 521/138/372 557/138/372 556/139/372
f 537/144/373 535/127/373 563/127/373 564/144/373
f 531/143/374 529/142/374 560/142/374 561/143/374
f 525/140/375 523/139/375 556/139/375 558/140/375
f 521/138/376 537/144/376 564/144/376 557/138/376
f 533/128/377 531/143/377 561/143/377 562/128/377
f 527/141/378 525/140/378 558/140/378 559/141/378
f 565/15/379 566/16/379 568/17/379 567/18/379
f 567/18/380 568/17/380 570/19/380 569/20/380
f 569/20/381 570/19/381 572/21/381 571/22/381
f 571/22/382 572/21/382 574/23/382 573/24/382
f 573/24/383 574/23/383 576/25/383 575/26/383
f 575/26/384 576/25/384 578/27/384 577/28/384
f 577/28/385 578/27/385 580/29/385 579/30/385
f 568/17/386 566/16/386 584/16/386 583/17/386
f 579/30/387 580/29/387 582/40/387 581/41/387
f 581/41/388 582/40/388 566/42/388 565/43/388
f 581/41/389 565/43/389 619/43/389 627/41/389
f 586/21/390 585/19/390 594/19/390 595/21/390
f 572/21/391 570/19/391 585/19/391 586/21/391
f 570/19/392 568/17/392 583/17/392 585/19/392
f 566/42/393 582/40/393 591/40/393 584/42/393
f 582/40/394 580/29/394 590/29/394 591/40/394
f 580/29/395 578/27/395 589/27/395 590/29/395
f 578/27/396 576/25/396 588/25/396 589/27/396
f 576/25/383 574/23/383 587/23/383 588/25/383
f 574/23/397 572/21/397 586/21/397 587/23/397
f 597/25/398 596/23/398 605/23/398 606/25/398
f 590/29/399 589/27/399 598/27/399 599/29/399
f 587/23/400 586/21/400 595/21/400 596/23/400
f 583/17/401 584/16/401 593/16/401 592/17/401
f 591/40/402 590/29/402 599/29/402 600/40/402
f 588/25/403 587/23/403 596/23/403 597/25/403
f 585/19/404 583/17/404 592/17/404 594/19/404
f 584/42/405 591/40/405 600/40/405 593/42/405
f 589/27/406 588/25/406 597/25/406 598/27/406
f 605/23/407 604/21/407 613/21/407 614/23/407
f 594/19/408 592/17/408 601/17/408 603/19/408
f 593/42/409 600/40/409 609/40/409 602/42/409
f 598/27/410 597/25/410 606/25/410 607/27/410
f 595/21/411 594/19/411 603/19/411 604/21/411
f 599/29/412 598/27/412 607/27/412 608/29/412
f 596/23/413 595/21/413 604/21/413 605/23/413
f 592/17/414 593/16/414 602/16/414 601/17/414
f 600/40/415 599/29/415 608/29/415 609/40/415
f 601/17/416 602/16/416 611/16/416 610/17/416
f 609/40/417 608/29/417 617/29/417 618/40/417
f 606/25/418 605/23/418 614/23/418 615/25/418
f 603/19/419 601/17/419 610/17/419 612/19/419
f 602/42/420 609/40/420 618/40/420 611/42/420
f 607/27/421 606/25/421 615/25/421 616/27/421
f 604/21/422 603/19/422 612/19/422 613/21/422
f 608/29/423 607/27/423 616/27/423 617/29/423
f 619/44/424 620/45/424 621/46/424 622/47/424 623/48/424 624/49/424 625/50/424 626/51/424 627/52/424
f 579/30/387 581/41/387 627/41/387 626/30/387
f 577/28/385 579/30/385 626/30/385 625/28/385
f 575/26/384 577/28/384 625/28/384 624/26/384
f 573/24/383 575/26/383 624/26/383 623/24/383
f 571/22/382 573/24/382 623/24/382 622/22/382
f 565/15/379 567/18/379 620/18/379 619/15/379
f 569/20/381 571/22/381 622/22/381 621/20/381
f 567/18/425 569/20/425 621/20/425 620/18/425
f 616/27/426 615/25/426 636/145/426 630/27/426
f 611/42/427 618/40/427 635/146/427 633/42/427
f 612/19/428 610/17/428 634/17/428 628/147/428
f 615/25/429 614/23/429 632/23/429 636/145/429
f 618/40/430 617/29/430 631/29/430 635/146/430
f 610/17/431 611/16/431 633/16/431 634/17/431
f 614/23/432 613/21/432 629/148/432 632/23/432
f 617/29/433 616/27/433 630/27/433 631/29/433
f 613/21/434 612/19/434 628/147/434 629/148/434
f 637/15/435 638/16/435 640/17/435 639/18/435
f 639/18/436 640/17/436 642/19/436 641/20/436
f 641/20/437 642/19/437 644/21/437 643/22/437
f 643/22/438 644/21/438 646/23/438 645/24/438
f 645/24/439 646/23/439 648/25/439 647/26/439
f 647/26/440 648/25/440 650/27/440 649/28/440
f 649/28/441 650/27/441 652/29/441 651/30/441
f 640/31/360 638/32/360 654/33/360 652/34/360 650/149/360 648/36/360 646/37/360 644/150/360 642/39/360
f 651/30/442 652/29/442 654/40/442 653/41/442
f 653/41/443 654/40/443 638/42/443 637/43/443
f 637/44/359 639/45/359 641/46/359 643/47/359 645/64/359 647/65/359 649/50/359 651/51/359 653/52/359
f 655/15/435 656/16/435 658/17/435 657/18/435
f 657/18/436 658/17/436 660/19/436 659/20/436
f 659/20/437 660/19/437 662/21/437 661/22/437
f 661/22/438 662/21/438 664/23/438 663/24/438
f 663/24/439 664/23/439 666/25/439 665/26/439
f 665/26/440 666/25/440 668/27/440 667/28/440
f 667/28/444 668/27/444 670/29/444 669/30/444
f 658/31/360 656/32/360 672/33/360 670/34/360 668/149/360 666/36/360 664/37/360 662/150/360 660/39/360
f 669/30/442 670/29/442 672/40/442 671/41/442
f 671/41/443 672/40/443 656/42/443 655/43/443
f 655/44/359 657/45/359 659/46/359 661/47/359 663/64/359 665/65/359 667/50/359 669/51/359 671/52/359
